<svg width="625" height="148" viewBox="0 0 625 148" fill="none" xmlns="http://www.w3.org/2000/svg">
<path fill-rule="evenodd" clip-rule="evenodd" d="M48.6636 44.8332C67.1152 49.0878 88 54.3554 88 77.2495C88 96.6993 72.7926 109.058 46.4332 109.058C16.6267 109.058 0.608295 93.0525 0 71.7792H17.0323C17.8433 84.3406 25.1429 94.8759 46.4332 94.8759C66.3041 94.8759 70.9677 85.7588 70.9677 77.8573C70.9677 65.1507 59.0856 62.6902 47.4257 60.2757L47.4253 60.2757C46.0715 59.9953 44.7206 59.7156 43.3917 59.4205C25.3456 55.5711 4.0553 50.506 4.0553 29.0302C4.0553 11.6064 18.0461 0.0580444 41.7696 0.0580444C68.5346 0.0580444 82.3226 14.6454 83.9447 32.4744H66.9124C65.2903 24.5729 61.235 14.2402 41.9723 14.2402C27.3733 14.2402 21.0876 20.1157 21.0876 28.4224C21.0876 38.7575 30.9401 40.9141 42.9128 43.5347L42.9129 43.5347C44.7877 43.9451 46.7145 44.3668 48.6636 44.8332ZM95.5903 80.2735C95.5903 97.1649 108.357 108.753 128.587 108.753C145.282 108.753 156.674 102.075 163.156 91.2725H163.549C164.531 103.646 169.834 106.985 178.476 106.985C181.225 106.985 183.582 106.593 186.136 106.003V95.0044C184.957 95.2008 184.368 95.2008 183.779 95.2008C179.851 95.2008 178.672 91.2726 178.672 83.4161V35.2954C178.672 10.7441 161.781 2.88763 143.122 2.88763C113.66 2.88763 101.483 17.6185 100.501 36.8667H116.999C117.981 22.3323 123.481 16.6364 142.533 16.6364C159.031 16.6364 163.352 23.5108 163.352 31.3672C163.352 41.1878 155.496 43.1519 138.408 46.2944C112.482 51.2047 95.5903 57.2935 95.5903 80.2735ZM163.352 67.3104C163.352 86.5587 149.014 95.0044 130.159 95.0044C117.196 95.0044 112.089 89.3084 112.089 79.4879C112.089 67.8997 120.338 63.3822 139.783 59.2576C150.585 57.097 160.406 54.5437 163.352 51.4011V67.3104ZM349.451 80.2735C349.451 97.1649 362.218 108.753 382.448 108.753C399.143 108.753 410.535 102.075 417.017 91.2725H417.409C418.391 103.646 423.694 106.985 432.337 106.985C435.086 106.985 437.443 106.593 439.997 106.003V95.0044C438.818 95.2008 438.229 95.2008 437.64 95.2008C433.711 95.2008 432.533 91.2726 432.533 83.4161V35.2954C432.533 10.7441 415.642 2.88763 396.983 2.88763C367.521 2.88763 355.344 17.6185 354.361 36.8667H370.86C371.842 22.3323 377.342 16.6364 396.393 16.6364C412.892 16.6364 417.213 23.5108 417.213 31.3672C417.213 41.1878 409.356 43.1519 392.269 46.2944C366.342 51.2047 349.451 57.2935 349.451 80.2735ZM417.213 67.3104C417.213 86.5587 402.875 95.0044 384.019 95.0044C371.056 95.0044 365.95 89.3084 365.95 79.4879C365.95 67.8997 374.199 63.3822 393.644 59.2576C404.446 57.097 414.267 54.5437 417.213 51.4011V67.3104ZM566.684 108.753C546.453 108.753 533.687 97.1649 533.687 80.2735C533.687 57.2935 550.578 51.2047 576.504 46.2944C593.592 43.1519 601.448 41.1878 601.448 31.3672C601.448 23.5108 597.127 16.6364 580.629 16.6364C561.577 16.6364 556.077 22.3323 555.095 36.8667H538.597C539.579 17.6185 551.756 2.88763 581.218 2.88763C599.877 2.88763 616.768 10.7441 616.768 35.2954V83.4161C616.768 91.2726 617.947 95.2008 621.875 95.2008C622.464 95.2008 623.053 95.2008 624.232 95.0044V106.003C621.679 106.593 619.322 106.985 616.572 106.985C607.93 106.985 602.627 103.646 601.645 91.2725H601.252C594.77 102.075 583.378 108.753 566.684 108.753ZM568.255 95.0044C587.11 95.0044 601.448 86.5587 601.448 67.3104V51.4011C598.502 54.5437 588.682 57.097 577.879 59.2576C558.434 63.3822 550.185 67.8997 550.185 79.4879C550.185 89.3084 555.292 95.0044 568.255 95.0044ZM479.517 105.021L438.86 5.83392H456.537L487.373 85.5768H487.766L517.228 5.83392H534.119L493.659 108.95C483.642 134.287 474.017 141.161 460.465 141.161C456.93 141.161 454.573 140.965 450.055 140.179V126.823L450.368 126.86C453.495 127.228 455.059 127.412 457.912 127.412C466.161 127.412 475.196 122.306 479.517 105.021ZM200.569 106.003V5.83368H216.282V17.8148H216.675C221.978 10.744 230.62 3.08392 245.743 3.08392C260.081 3.08392 268.331 9.17267 272.455 20.3681H272.848C279.722 10.9404 290.132 3.08392 305.256 3.08392C325.486 3.08392 335.307 15.065 335.307 36.081V106.003H319.594V40.0092C319.594 27.0461 317.041 16.8327 301.328 16.8327C285.615 16.8327 275.794 28.0281 275.794 43.5446V106.003H260.081V40.0092C260.081 27.0461 257.528 16.8327 241.815 16.8327C226.102 16.8327 216.282 28.0281 216.282 43.5446V106.003H200.569ZM43.5455 147.636C49.9218 147.636 55.0909 142.467 55.0909 136.091C55.0909 129.714 49.9218 124.545 43.5455 124.545C37.1691 124.545 32 129.714 32 136.091C32 142.467 37.1691 147.636 43.5455 147.636Z" fill="black"/>
</svg>
