<?xml version="1.0" encoding="UTF-8"?>
<svg version="1.1" xmlns="http://www.w3.org/2000/svg" width="436" height="121">
<path d="M0 0 C3.394622 2.009062 6.13753522 4.17289764 9.0625 6.8125 C9.82433594 6.19761719 9.82433594 6.19761719 10.6015625 5.5703125 C11.28992188 5.03148437 11.97828125 4.49265625 12.6875 3.9375 C13.36039063 3.40382813 14.03328125 2.87015625 14.7265625 2.3203125 C21.30515468 -1.92606974 28.48460769 -2.01563629 36.0625 -1.1875 C42.4172992 0.52507927 46.14643053 3.29445134 49.625 8.875 C52.23125971 13.66667861 53.18949621 17.50603313 53.17602539 22.94824219 C53.17591209 24.47937653 53.17591209 24.47937653 53.17579651 26.04144287 C53.17063522 27.13636047 53.16547394 28.23127808 53.16015625 29.359375 C53.1587413 30.4857135 53.15732635 31.612052 53.15586853 32.77252197 C53.15027199 36.36920835 53.1377201 39.96583244 53.125 43.5625 C53.11998455 46.00130118 53.11542172 48.44010334 53.11132812 50.87890625 C53.10030369 56.85679483 53.0830414 62.83463685 53.0625 68.8125 C47.4525 68.8125 41.8425 68.8125 36.0625 68.8125 C36.04791748 67.45044434 36.03333496 66.08838867 36.01831055 64.68505859 C35.96022695 59.61936527 35.88299409 54.55411175 35.80004883 49.48876953 C35.7668469 47.29873812 35.7388003 45.10862211 35.71606445 42.91845703 C35.68243191 39.7655847 35.63011052 36.61348427 35.57421875 33.4609375 C35.56782883 32.48571136 35.5614389 31.51048523 35.55485535 30.50570679 C35.44108016 25.21474087 35.05152062 21.37374546 32.0625 16.8125 C29.13587141 14.66710697 27.02826356 14.6294909 23.5 15.125 C22.35337891 15.27388672 22.35337891 15.27388672 21.18359375 15.42578125 C18.88490377 15.7933987 18.88490377 15.7933987 16.0625 16.8125 C13.48919196 22.12244922 13.71683063 27.68675647 13.6484375 33.4609375 C13.62907135 34.47346588 13.6097052 35.48599426 13.5897522 36.52920532 C13.53019277 39.74855242 13.48366552 42.96793574 13.4375 46.1875 C13.39929849 48.37631728 13.3602455 50.56511988 13.3203125 52.75390625 C13.22451077 58.10664005 13.13939467 63.459463 13.0625 68.8125 C10.41659986 68.83934679 7.77096904 68.85926357 5.125 68.875 C4.37025391 68.88337891 3.61550781 68.89175781 2.83789062 68.90039062 C0.91255687 68.90902441 -1.01285581 68.86474333 -2.9375 68.8125 C-4.49738221 67.25261779 -4.06987726 65.73999871 -4.0793457 63.5715332 C-4.08638016 62.67002029 -4.09341461 61.76850739 -4.10066223 60.8396759 C-4.10482651 59.85746567 -4.10899078 58.87525543 -4.11328125 57.86328125 C-4.13648814 55.79751595 -4.16060583 53.73176072 -4.18554688 51.66601562 C-4.22061868 48.39845133 -4.24997425 45.13125469 -4.26342773 41.86352539 C-4.27892946 38.7171525 -4.31916634 35.57186624 -4.36328125 32.42578125 C-4.36137283 31.45369217 -4.35946442 30.48160309 -4.35749817 29.48005676 C-4.46235703 23.647503 -5.04147218 20.25190688 -8.9375 15.8125 C-11.90773423 14.57445961 -14.74412073 14.53878178 -17.9375 14.8125 C-20.82789626 16.11041982 -20.82789626 16.11041982 -22.9375 17.8125 C-23.5975 17.8125 -24.2575 17.8125 -24.9375 17.8125 C-24.9375 12.8625 -24.9375 7.9125 -24.9375 2.8125 C-17.41957796 -1.90462755 -8.5046954 -3.28848222 0 0 Z " fill="#D75E44" transform="translate(129.9375,23.1875)"/>
<path d="M0 0 C1.65 0 3.3 0 5 0 C11.77517288 19.94500057 18.32572615 39.95759338 24.66064453 60.04696655 C25.38689511 62.34903196 26.11508581 64.65048621 26.84521484 66.95132446 C27.87677875 70.20527588 28.90050775 73.4615857 29.921875 76.71875 C30.23380798 77.69954025 30.54574097 78.68033051 30.86712646 79.69084167 C31.14912903 80.59659439 31.43113159 81.50234711 31.72167969 82.43554688 C31.96972351 83.22409058 32.21776733 84.01263428 32.47332764 84.82507324 C33 87 33 87 33 91 C27.39 91 21.78 91 16 91 C13.03 82.09 13.03 82.09 10 73 C-0.23 72.67 -10.46 72.34 -21 72 C-19.80743041 66.63343685 -18.5102723 61.28595306 -17 56 C-6.605 55.505 -6.605 55.505 4 55 C3.26652344 52.77121094 2.53304687 50.54242188 1.77734375 48.24609375 C1.07222353 46.06939801 0.37218509 43.89112898 -0.32739258 41.71264648 C-0.81396989 40.20669697 -1.30576168 38.70242142 -1.80297852 37.19995117 C-2.51936993 35.0320947 -3.21640153 32.85878479 -3.91015625 30.68359375 C-4.13405533 30.01976181 -4.35795441 29.35592987 -4.58863831 28.67198181 C-6.46520298 22.67419332 -5.70116545 17.68823125 -3.80859375 11.81640625 C-3.47504883 10.76743164 -3.47504883 10.76743164 -3.13476562 9.69726562 C-2.90466797 8.99279297 -2.67457031 8.28832031 -2.4375 7.5625 C-2.20353516 6.83095703 -1.96957031 6.09941406 -1.72851562 5.34570312 C-1.15732778 3.56219821 -0.57936877 1.78086417 0 0 Z " fill="#D85E44" transform="translate(46,1)"/>
<path d="M0 0 C1.37671875 0.03383789 1.37671875 0.03383789 2.78125 0.06835938 C5.02155189 0.12670057 7.26100172 0.21635981 9.5 0.3125 C9.5 4.9325 9.5 9.5525 9.5 14.3125 C4.95898438 14.55664062 4.95898438 14.55664062 0.41796875 14.80078125 C-2.873 15.37791232 -3.61312891 15.62688353 -5.5 18.3125 C-5.97664645 21.60553325 -5.97664645 21.60553325 -5.93237305 25.44604492 C-5.9425647 26.16824722 -5.95275635 26.89044952 -5.96325684 27.63453674 C-5.99344195 30.02075909 -6.00266087 32.40658039 -6.01171875 34.79296875 C-6.02856141 36.44779297 -6.04671109 38.10260436 -6.06611633 39.75740051 C-6.11366759 44.11225375 -6.14344364 48.46705499 -6.16955566 52.82208252 C-6.19933544 57.26625845 -6.24587459 61.71025513 -6.29101562 66.15429688 C-6.37710701 74.87360996 -6.44442615 83.59293927 -6.5 92.3125 C-9.14590014 92.33934679 -11.79153096 92.35926357 -14.4375 92.375 C-15.19224609 92.38337891 -15.94699219 92.39175781 -16.72460938 92.40039062 C-18.64994313 92.40902441 -20.57535581 92.36474333 -22.5 92.3125 C-23.5 91.3125 -23.5 91.3125 -23.62025452 89.14219666 C-23.61803391 88.18511307 -23.61581329 87.22802948 -23.61352539 86.24194336 C-23.61344986 85.16089828 -23.61337433 84.07985321 -23.61329651 82.96604919 C-23.60813522 81.7900264 -23.60297394 80.6140036 -23.59765625 79.40234375 C-23.5962413 78.20517227 -23.59482635 77.00800079 -23.59336853 75.77455139 C-23.58774979 71.93300934 -23.57519411 68.09152457 -23.5625 64.25 C-23.55748741 61.65299563 -23.55292409 59.05599035 -23.54882812 56.45898438 C-23.53777427 50.07680068 -23.52049708 43.69466007 -23.5 37.3125 C-26.8 37.3125 -30.1 37.3125 -33.5 37.3125 C-33.5 32.6925 -33.5 28.0725 -33.5 23.3125 C-30.2 23.3125 -26.9 23.3125 -23.5 23.3125 C-23.47421875 22.59964844 -23.4484375 21.88679688 -23.421875 21.15234375 C-23.0426244 14.74818016 -22.48462346 10.42099162 -18.5 5.3125 C-12.64740254 0.2948531 -7.50638742 -0.35458952 0 0 Z " fill="#D75E45" transform="translate(353.5,-0.3125)"/>
<path d="M0 0 C0.70705078 0.00829834 1.41410156 0.01659668 2.14257812 0.02514648 C10.97045414 0.30988399 17.00619294 3.43132131 23.3984375 9.390625 C30.4914993 17.50583108 32.68352455 28.03117328 32.43359375 38.54296875 C31.4271837 50.38026793 27.21881665 59.41065715 18.19140625 67.1484375 C12.3176374 70.9268853 7.48034361 71.9221855 0.625 71.8125 C-0.10396484 71.82410156 -0.83292969 71.83570312 -1.58398438 71.84765625 C-2.30005859 71.84378906 -3.01613281 71.83992188 -3.75390625 71.8359375 C-4.39013916 71.83255371 -5.02637207 71.82916992 -5.68188477 71.82568359 C-7.8125 71.4375 -7.8125 71.4375 -13.8125 68.4375 C-13.8125 62.8275 -13.8125 57.2175 -13.8125 51.4375 C-12.678125 52.0975 -11.54375 52.7575 -10.375 53.4375 C-5.79907587 55.70521461 -1.85506739 56.3526326 3.1875 55.4375 C8.15220614 53.04708593 10.17571615 50.51990131 12.1875 45.4375 C14.26370251 38.52650423 14.04831712 30.79013241 11.17578125 24.16015625 C8.94115798 20.26502241 6.42009849 17.84836616 2.1875 16.4375 C-4.46504824 15.87372473 -8.02942403 17.13288516 -13.8125 20.4375 C-13.8125 14.8275 -13.8125 9.2175 -13.8125 3.4375 C-8.50540318 0.78395159 -5.6188358 -0.08487062 0 0 Z " fill="#D75E45" transform="translate(223.8125,21.5625)"/>
<path d="M0 0 C1.48831242 0.00667405 2.97660807 0.01863442 4.46484375 0.03515625 C5.22345703 0.03966797 5.98207031 0.04417969 6.76367188 0.04882812 C8.64326246 0.06064945 10.52281274 0.07858547 12.40234375 0.09765625 C11.22670289 6.08800765 9.61944158 11.63523046 7.33984375 17.29296875 C7.03607315 18.06357635 6.73230255 18.83418396 6.41932678 19.62814331 C5.41945586 22.16198024 4.41079642 24.69222412 3.40234375 27.22265625 C1.96015671 30.86976142 0.5229695 34.51882981 -0.9140625 38.16796875 C-1.28938614 39.11939758 -1.66470978 40.07082642 -2.05140686 41.05108643 C-4.95385477 48.42214272 -7.80084837 55.81346581 -10.625 63.21484375 C-11.03666412 64.29355743 -11.44832825 65.37227112 -11.87246704 66.4836731 C-13.49786086 70.74603915 -15.12164785 75.00900604 -16.74145508 79.27349854 C-17.86713738 82.23654762 -18.99587467 85.19841788 -20.125 88.16015625 C-20.63171486 89.49939651 -20.63171486 89.49939651 -21.14866638 90.86569214 C-21.45788528 91.67571686 -21.76710419 92.48574158 -22.08569336 93.3203125 C-22.35498154 94.02937744 -22.62426971 94.73844238 -22.90171814 95.46899414 C-23.59765625 97.09765625 -23.59765625 97.09765625 -24.59765625 98.09765625 C-27.29420479 98.17085246 -29.96457083 98.19008162 -32.66015625 98.16015625 C-33.41876953 98.15564453 -34.17738281 98.15113281 -34.95898438 98.14648438 C-36.83857496 98.13466305 -38.71812524 98.11672703 -40.59765625 98.09765625 C-38.40773401 90.40651131 -35.80247963 82.91085411 -33.03515625 75.41015625 C-32.80988251 74.79724731 -32.58460876 74.18433838 -32.35250854 73.55285645 C-27.40671546 60.10648814 -22.28510299 46.72652578 -17.16015625 33.34765625 C-16.76593475 32.31847076 -16.37171326 31.28928528 -15.96554565 30.22891235 C-14.82461756 27.25239361 -13.68223522 24.27643857 -12.5390625 21.30078125 C-12.2008548 20.4194603 -11.86264709 19.53813934 -11.51419067 18.63011169 C-9.83043378 14.25450946 -8.13230175 9.88454549 -6.41381836 5.52246094 C-6.08973495 4.69800476 -5.76565155 3.87354858 -5.43174744 3.02410889 C-3.99965135 -0.28352142 -3.97698475 0.1079529 0 0 Z " fill="#D75E44" transform="translate(423.59765625,22.90234375)"/>
<path d="M0 0 C4.95 0 9.9 0 15 0 C13.74019191 5.89381993 12.30689749 11.66712567 10.58569336 17.44140625 C10.35292191 18.23115341 10.12015045 19.02090057 9.88032532 19.83457947 C9.11989349 22.41146958 8.35504679 24.98702304 7.58984375 27.5625 C7.05683789 29.36322975 6.52400885 31.16401184 5.99134827 32.96484375 C4.87961425 36.72081099 3.76566769 40.47611291 2.65014648 44.23095703 C1.21778488 49.05299219 -0.20885314 53.87669907 -1.63385868 58.70091248 C-2.73043938 62.41091351 -3.83006716 66.1200059 -4.93063164 69.8288269 C-5.45829687 71.60842459 -5.98498722 73.38831162 -6.51069832 75.16848755 C-7.24238441 77.64451129 -7.97816784 80.1192798 -8.71508789 82.59375 C-9.04160843 83.70326271 -9.04160843 83.70326271 -9.37472534 84.83518982 C-10.88574158 89.88574158 -10.88574158 89.88574158 -12 91 C-14.69654854 91.07319621 -17.36691458 91.09242537 -20.0625 91.0625 C-20.82111328 91.05798828 -21.57972656 91.05347656 -22.36132812 91.04882812 C-24.24091871 91.0370068 -26.12046899 91.01907078 -28 91 C-27.39840604 85.9239709 -26.29521291 81.22649036 -24.73095703 76.35571289 C-24.50154419 75.62626968 -24.27213135 74.89682648 -24.0357666 74.14527893 C-23.28177236 71.75268525 -22.51994537 69.36266867 -21.7578125 66.97265625 C-21.22792291 65.29801994 -20.69845997 63.62324857 -20.16940308 61.948349 C-19.06145446 58.444712 -17.94989166 54.94225057 -16.83544922 51.44067383 C-15.41245884 46.96939092 -13.99612627 42.496036 -12.58221626 38.02187443 C-11.48933975 34.56475859 -10.39410944 31.10839231 -9.29806137 27.65228081 C-8.77536881 26.00392038 -8.25311685 24.35542018 -7.73132706 22.70677376 C-6.99901988 20.39504002 -6.26384442 18.084238 -5.52783203 15.77368164 C-5.31577118 15.10278503 -5.10371033 14.43188843 -4.88522339 13.74066162 C-3.40248321 9.10040294 -1.73796784 4.55098587 0 0 Z " fill="#D75F44" transform="translate(28,1)"/>
<path d="M0 0 C5.28 0 10.56 0 16 0 C16 30.36 16 60.72 16 92 C10.72 92 5.44 92 0 92 C0 61.64 0 31.28 0 0 Z " fill="#D65F45" transform="translate(264,0)"/>
<path d="M0 0 C4.95 0 9.9 0 15 0 C15 32.34 15 64.68 15 98 C10.05 98 5.1 98 0 98 C0 65.66 0 33.32 0 0 Z " fill="#D75E44" transform="translate(192,23)"/>
<path d="M0 0 C5.28 0 10.56 0 16 0 C17 1 17 1 17.12025452 3.70179749 C17.1169236 5.51048561 17.1169236 5.51048561 17.11352539 7.35571289 C17.11367142 8.01910172 17.11381744 8.68249054 17.1139679 9.36598206 C17.11326881 11.56823956 17.10547665 13.77041345 17.09765625 15.97265625 C17.09579206 17.49580336 17.09436816 19.01895107 17.09336853 20.542099 C17.08954346 24.55837651 17.07971328 28.57461808 17.06866455 32.59088135 C17.05845019 36.68623366 17.05387086 40.78159176 17.04882812 44.87695312 C17.03809099 52.91798712 17.02049429 60.95898495 17 69 C11.39 69 5.78 69 0 69 C0 46.23 0 23.46 0 0 Z " fill="#D75E45" transform="translate(294,23)"/>
<path d="M0 0 C4.95 0 9.9 0 15 0 C15 22.77 15 45.54 15 69 C10.05 69 5.1 69 0 69 C-1.83683222 67.16316778 -1.12774193 64.21344528 -1.12939453 61.75195312 C-1.13114685 61.09992416 -1.13289917 60.4478952 -1.13470459 59.77610779 C-1.13912204 57.61112847 -1.13618551 55.44623021 -1.1328125 53.28125 C-1.13348557 51.78291813 -1.13445562 50.28458637 -1.13571167 48.78625488 C-1.1371885 45.64216067 -1.13503458 42.49809483 -1.13037109 39.35400391 C-1.1246738 35.31513461 -1.12795289 31.27633176 -1.13394356 27.2374649 C-1.13754958 24.1423492 -1.13641039 21.04724935 -1.13381577 17.95213318 C-1.13314661 16.46251925 -1.13397452 14.9729039 -1.13629532 13.48329163 C-1.13882253 11.40483765 -1.13498033 9.32649269 -1.12939453 7.24804688 C-1.12859894 6.06303589 -1.12780334 4.8780249 -1.12698364 3.65710449 C-1 1 -1 1 0 0 Z " fill="#D55F45" transform="translate(87,23)"/>
<path d="M0 0 C5.94 0 11.88 0 18 0 C20.49310846 5.43852866 22.89307731 10.90696536 25.22045898 16.41845703 C26.0208474 18.2806245 26.84422877 20.13310559 27.69213867 21.97412109 C32.08656988 31.55486679 35.33923991 39.22726588 32.00953674 49.64031982 C30.52774387 53.52608737 28.89399645 57.29742775 27 61 C26.01 61 25.02 61 24 61 C21.161737 54.08195134 18.32749947 47.16226521 15.49829292 40.24050808 C14.18424257 37.02599074 12.86884838 33.81203758 11.55029297 30.59936523 C10.03203477 26.89994275 8.51978664 23.19808906 7.0078125 19.49609375 C6.53691193 18.35103867 6.06601135 17.20598358 5.58084106 16.02622986 C4.92038284 14.40534203 4.92038284 14.40534203 4.24658203 12.75170898 C3.86019562 11.80794907 3.4738092 10.86418915 3.07571411 9.89183044 C1.87185018 6.65549624 0.94860961 3.32013362 0 0 Z " fill="#D75F44" transform="translate(367,23)"/>
<path d="M0 0 C5.61 0 11.22 0 17 0 C17 5.28 17 10.56 17 16 C11.39 16 5.78 16 0 16 C0 10.72 0 5.44 0 0 Z " fill="#D75E45" transform="translate(294,0)"/>
<path d="M0 0 C4.29 0 8.58 0 13 0 C13 4.62 13 9.24 13 14 C8.71 14 4.42 14 0 14 C0 9.38 0 4.76 0 0 Z " fill="#D75E42" transform="translate(350,23)"/>
<path d="M0 0 C1.98 0.99 1.98 0.99 4 2 C3.67 4.31 3.34 6.62 3 9 C0.87491756 5.81237635 0.4979837 3.73487777 0 0 Z " fill="#D0614B" transform="translate(42,28)"/>
</svg>
