<?xml version="1.0" encoding="UTF-8"?><svg id="Layer_1" xmlns="http://www.w3.org/2000/svg" viewBox="0 0 713.86 394.34"><defs><style>.cls-1{fill:none;stroke:#f15a29;stroke-miterlimit:10;stroke-width:16.64px;}.cls-2{fill:#231f20;}</style></defs><path class="cls-1" d="M196.68,315.84c-65.54,0-118.67-53.13-118.67-118.67s53.13-118.67,118.67-118.67"/><path class="cls-1" d="M135.54,270.51c-40.43-33.93-45.71-94.21-11.78-134.65,33.93-40.43,94.21-45.71,134.65-11.78"/><path class="cls-1" d="M162.51,261.31c-35.4-18.69-48.95-62.53-30.27-97.93s62.53-48.95,97.93-30.27"/><path class="cls-1" d="M196.68,246.56c-27.28,0-49.39-22.11-49.39-49.39s22.11-49.39,49.39-49.39"/><g><path class="cls-2" d="M211.93,183.36c-1.93-2.03-3.94-3.65-6.05-4.86-2.11-1.2-4.26-1.8-6.46-1.8-3.02,0-5.73,.55-8.11,1.66-2.39,1.11-4.42,2.59-6.12,4.44-1.7,1.85-2.98,3.98-3.85,6.38-.87,2.41-1.31,4.9-1.31,7.49s.43,5.09,1.31,7.49c.87,2.41,2.15,4.53,3.85,6.38,1.7,1.85,3.73,3.33,6.12,4.44,2.38,1.11,5.09,1.66,8.11,1.66,2.57,0,4.95-.53,7.15-1.59,2.2-1.06,4.08-2.61,5.64-4.65l11,11.93c-1.65,1.67-3.55,3.1-5.71,4.3-2.16,1.2-4.33,2.17-6.53,2.91-2.2,.74-4.31,1.27-6.33,1.59-2.02,.32-3.76,.49-5.23,.49-4.95,0-9.62-.83-14.03-2.5-4.4-1.67-8.21-4.02-11.41-7.08-3.21-3.05-5.75-6.73-7.63-11.03-1.88-4.3-2.82-9.09-2.82-14.36s.94-10.06,2.82-14.36c1.88-4.3,4.42-7.98,7.63-11.03,3.21-3.05,7.01-5.41,11.41-7.07,4.4-1.66,9.08-2.5,14.03-2.5,4.22,0,8.46,.81,12.72,2.43,4.26,1.62,8,4.19,11.21,7.7l-11.41,11.51Z"/><path class="cls-2" d="M238.06,202.51c.55,4.99,2.48,8.88,5.77,11.65,3.3,2.77,7.29,4.16,11.96,4.16,4.12,0,7.58-.85,10.38-2.57,2.8-1.71,5.25-3.86,7.36-6.45l11.83,9.02c-3.85,4.81-8.16,8.23-12.93,10.27-4.77,2.03-9.76,3.05-14.99,3.05-4.95,0-9.62-.83-14.03-2.5-4.4-1.67-8.21-4.02-11.41-7.08-3.21-3.05-5.75-6.73-7.63-11.03-1.88-4.3-2.82-9.09-2.82-14.36s.94-10.06,2.82-14.36c1.88-4.3,4.42-7.98,7.63-11.03,3.21-3.05,7.01-5.41,11.41-7.07,4.4-1.66,9.08-2.5,14.03-2.5,4.58,0,8.78,.81,12.58,2.43,3.8,1.62,7.06,3.95,9.76,7.01,2.7,3.05,4.81,6.82,6.33,11.31,1.51,4.49,2.27,9.64,2.27,15.47v4.58h-50.33Zm33.83-12.48c-.09-4.9-1.6-8.76-4.54-11.58-2.93-2.82-7.01-4.23-12.24-4.23-4.95,0-8.87,1.44-11.76,4.3-2.89,2.87-4.65,6.71-5.29,11.51h33.83Z"/><path class="cls-2" d="M295.53,163.39h16.5v10.54h.27c1.83-3.88,4.45-6.89,7.84-9.02,3.39-2.13,7.29-3.19,11.69-3.19,1.01,0,1.99,.09,2.96,.28,.96,.19,1.95,.42,2.96,.69v16.09c-1.38-.37-2.73-.67-4.06-.9-1.33-.23-2.64-.35-3.92-.35-3.85,0-6.94,.72-9.28,2.15-2.34,1.44-4.12,3.08-5.36,4.92-1.24,1.85-2.06,3.7-2.48,5.55-.41,1.85-.62,3.24-.62,4.16v35.65h-16.5v-66.59Z"/><path class="cls-2" d="M354.25,202.51c.55,4.99,2.48,8.88,5.77,11.65s7.29,4.16,11.96,4.16c4.12,0,7.58-.85,10.38-2.57,2.8-1.71,5.25-3.86,7.36-6.45l11.83,9.02c-3.85,4.81-8.16,8.23-12.92,10.27-4.77,2.03-9.76,3.05-14.99,3.05-4.95,0-9.62-.83-14.02-2.5-4.4-1.67-8.21-4.02-11.41-7.08-3.21-3.05-5.75-6.73-7.63-11.03-1.88-4.3-2.82-9.09-2.82-14.36s.94-10.06,2.82-14.36c1.88-4.3,4.42-7.98,7.63-11.03,3.21-3.05,7.01-5.41,11.41-7.07,4.4-1.66,9.07-2.5,14.02-2.5,4.58,0,8.78,.81,12.58,2.43,3.8,1.62,7.06,3.95,9.76,7.01,2.7,3.05,4.81,6.82,6.33,11.31,1.51,4.49,2.27,9.64,2.27,15.47v4.58h-50.33Zm33.83-12.48c-.09-4.9-1.61-8.76-4.54-11.58-2.93-2.82-7.01-4.23-12.24-4.23-4.95,0-8.87,1.44-11.76,4.3-2.89,2.87-4.65,6.71-5.29,11.51h33.83Z"/><path class="cls-2" d="M408.97,125.1h16.5v46.75h.41c.82-1.11,1.88-2.24,3.16-3.4,1.28-1.16,2.84-2.24,4.67-3.26,1.83-1.02,3.94-1.85,6.33-2.5,2.38-.65,5.13-.97,8.25-.97,4.67,0,8.98,.9,12.92,2.71,3.94,1.8,7.31,4.28,10.11,7.42,2.79,3.15,4.97,6.85,6.53,11.1,1.56,4.25,2.34,8.83,2.34,13.73s-.73,9.48-2.2,13.73c-1.47,4.25-3.62,7.96-6.46,11.1-2.84,3.15-6.28,5.62-10.31,7.42-4.04,1.8-8.57,2.71-13.61,2.71-4.68,0-9.03-.93-13.06-2.77-4.04-1.85-7.24-4.81-9.62-8.88h-.28v9.99h-15.67V125.1Zm54.73,71.58c0-2.59-.44-5.08-1.31-7.49-.87-2.4-2.16-4.53-3.85-6.38-1.7-1.85-3.74-3.33-6.12-4.44-2.38-1.11-5.09-1.66-8.11-1.66s-5.73,.55-8.11,1.66c-2.38,1.11-4.42,2.59-6.12,4.44-1.7,1.85-2.98,3.98-3.85,6.38-.87,2.41-1.31,4.9-1.31,7.49s.43,5.09,1.31,7.49c.87,2.41,2.15,4.53,3.85,6.38,1.7,1.85,3.73,3.33,6.12,4.44,2.38,1.11,5.09,1.66,8.11,1.66s5.73-.55,8.11-1.66c2.38-1.11,4.42-2.59,6.12-4.44,1.7-1.85,2.98-3.98,3.85-6.38,.87-2.4,1.31-4.9,1.31-7.49Z"/><path class="cls-2" d="M487.35,163.39h16.5v10.54h.28c1.83-3.88,4.45-6.89,7.84-9.02,3.39-2.13,7.29-3.19,11.69-3.19,1.01,0,1.99,.09,2.96,.28,.96,.19,1.95,.42,2.96,.69v16.09c-1.38-.37-2.73-.67-4.06-.9-1.33-.23-2.64-.35-3.92-.35-3.85,0-6.94,.72-9.28,2.15-2.34,1.44-4.13,3.08-5.36,4.92-1.24,1.85-2.06,3.7-2.47,5.55-.41,1.85-.62,3.24-.62,4.16v35.65h-16.5v-66.59Z"/><path class="cls-2" d="M573.84,220.82h-.41c-2.38,3.79-5.41,6.54-9.08,8.25-3.67,1.71-7.7,2.57-12.1,2.57-3.03,0-5.98-.42-8.87-1.25s-5.46-2.08-7.7-3.75c-2.25-1.67-4.06-3.75-5.43-6.24-1.38-2.5-2.06-5.41-2.06-8.74,0-3.61,.64-6.68,1.92-9.22,1.28-2.54,3-4.67,5.16-6.38,2.15-1.71,4.65-3.07,7.49-4.09,2.84-1.02,5.8-1.78,8.87-2.29,3.07-.51,6.16-.83,9.28-.97,3.12-.14,6.05-.21,8.8-.21h4.12v-1.8c0-4.16-1.42-7.28-4.26-9.36-2.84-2.08-6.46-3.12-10.86-3.12-3.48,0-6.74,.62-9.76,1.87-3.02,1.25-5.64,2.94-7.84,5.06l-8.66-8.74c3.67-3.79,7.95-6.52,12.86-8.18,4.9-1.66,9.97-2.5,15.19-2.5,4.67,0,8.62,.53,11.83,1.6,3.21,1.06,5.87,2.43,7.98,4.09,2.11,1.66,3.73,3.58,4.88,5.76,1.15,2.17,1.97,4.37,2.48,6.59,.5,2.22,.8,4.37,.89,6.45,.09,2.08,.14,3.91,.14,5.48v38.29h-14.85v-9.16Zm-.96-20.67h-3.44c-2.29,0-4.86,.09-7.7,.28-2.84,.19-5.52,.62-8.04,1.32-2.52,.69-4.65,1.71-6.39,3.05-1.74,1.34-2.61,3.21-2.61,5.62,0,1.57,.34,2.89,1.03,3.95,.69,1.06,1.58,1.97,2.68,2.71,1.1,.74,2.34,1.27,3.71,1.6,1.38,.33,2.75,.49,4.12,.49,5.68,0,9.88-1.36,12.58-4.09,2.7-2.73,4.06-6.45,4.06-11.17v-3.74Z"/><path class="cls-2" d="M633.37,181.84c-3.21-4.53-7.52-6.8-12.92-6.8-2.2,0-4.36,.55-6.46,1.66-2.11,1.11-3.16,2.91-3.16,5.41,0,2.04,.87,3.52,2.61,4.44,1.74,.93,3.94,1.71,6.6,2.36,2.66,.65,5.52,1.32,8.59,2.01,3.07,.69,5.93,1.76,8.59,3.19,2.66,1.44,4.86,3.4,6.6,5.9,1.74,2.5,2.61,5.92,2.61,10.27,0,3.98-.85,7.33-2.54,10.06-1.7,2.73-3.9,4.92-6.6,6.59-2.71,1.67-5.75,2.87-9.14,3.61-3.39,.74-6.79,1.11-10.18,1.11-5.13,0-9.85-.74-14.16-2.22-4.31-1.48-8.16-4.16-11.55-8.05l11-10.4c2.11,2.41,4.38,4.37,6.81,5.9,2.43,1.53,5.38,2.29,8.87,2.29,1.19,0,2.43-.14,3.71-.42,1.28-.28,2.47-.74,3.58-1.39,1.1-.65,1.99-1.46,2.68-2.43,.69-.97,1.03-2.1,1.03-3.4,0-2.31-.87-4.02-2.61-5.13-1.74-1.11-3.94-2.01-6.6-2.71-2.66-.69-5.52-1.34-8.59-1.94-3.07-.6-5.94-1.57-8.59-2.91-2.66-1.34-4.86-3.21-6.6-5.62-1.74-2.4-2.61-5.73-2.61-9.99,0-3.7,.76-6.91,2.27-9.64,1.51-2.73,3.51-4.97,5.98-6.73,2.48-1.76,5.32-3.05,8.53-3.88,3.21-.83,6.46-1.25,9.76-1.25,4.4,0,8.75,.76,13.06,2.29,4.31,1.53,7.79,4.14,10.45,7.84l-11,9.99Z"/></g></svg>