<?xml version="1.0" encoding="utf-8"?>
<!-- Generator: Adobe Illustrator 26.3.1, SVG Export Plug-In . SVG Version: 6.00 Build 0)  -->
<svg version="1.1" id="Layer_1" xmlns="http://www.w3.org/2000/svg" xmlns:xlink="http://www.w3.org/1999/xlink" x="0px" y="0px"
	 viewBox="0 0 209.3 46.9" style="enable-background:new 0 0 209.3 46.9;" xml:space="preserve">
<style type="text/css">
	.st0{fill:#007694;}
</style>
<g>
	<polygon class="st0" points="27.3,6.1 14.2,20.3 14.2,6.1 7,6.1 7,38.5 14.2,38.5 14.2,28.6 17.9,24.7 28,38.5 36.5,38.5 
		22.7,19.9 35.9,6.1 	"/>
	<polygon class="st0" points="40.8,6.1 65.3,6.1 65.3,12.5 47.9,12.5 47.9,19.1 63.2,19.1 63.2,25.4 47.9,25.4 47.9,32.2 65.5,32.2 
		65.5,38.5 40.8,38.5 	"/>
	<polygon class="st0" points="71.8,6.1 78.4,6.1 93.6,26.1 93.6,6.1 100.6,6.1 100.6,38.5 94.6,38.5 78.9,17.9 78.9,38.5 71.8,38.5 
		71.8,6.1 	"/>
	<path class="st0" d="M106.2,33.8l4.2-5c2.9,2.4,6,3.9,9.7,3.9c2.9,0,4.7-1.2,4.7-3.1v-0.1c0-1.8-1.1-2.7-6.5-4.1
		c-6.5-1.7-10.7-3.5-10.7-9.9v-0.1c0-5.9,4.7-9.8,11.3-9.8c4.7,0,8.7,1.5,12,4.1l-3.7,5.4c-2.9-2-5.7-3.2-8.4-3.2
		c-2.7,0-4.2,1.2-4.2,2.8v0.1c0,2.1,1.4,2.8,7,4.3c6.6,1.7,10.3,4.1,10.3,9.7V29c0,6.4-4.9,10-11.9,10C115,39,110.1,37.3,106.2,33.8
		"/>
	<polygon class="st0" points="138,6.1 145.1,6.1 145.1,19 158.3,19 158.3,6.1 165.4,6.1 165.4,38.5 158.3,38.5 158.3,25.5 
		145.1,25.5 145.1,38.5 138,38.5 	"/>
	<path class="st0" d="M205.4,22.3c0,2.8-0.7,5.4-1.8,7.7c0,0.1-0.1,0.2-0.1,0.3l-1.2-0.6c0-0.1,0.1-0.2,0.1-0.3
		c1.1-2.1,1.7-4.5,1.7-7c0-3.7-1.3-7-3.4-9.7l-2,1.7c-0.1-0.1-0.1-0.2-0.2-0.2c-2.2-2.6-5.3-4.3-8.9-4.5l-0.2,3.3
		c-0.1,0-0.2,0-0.3,0c-0.2,0-0.3,0-0.5,0c-5.3,0-9.5,4.3-9.5,9.5c0,5.3,4.3,9.5,9.5,9.5c3.1,0,5.9-1.5,7.7-3.9
		c0.1-0.1,0.1-0.2,0.2-0.2l2.7,1.9l2.1,1.5l1.1,0.8c-0.1,0.1-0.1,0.2-0.2,0.2c-3.1,4.2-8,6.9-13.6,6.9c-9.3,0-16.8-7.5-16.8-16.8
		c0-9.3,7.5-16.8,16.8-16.8c0.3,0,0.6,0,0.9,0c0.1,0,0.2,0,0.3,0c4.7,0.3,8.8,2.6,11.7,6c0.1,0.1,0.1,0.1,0.2,0.2
		C204,14.7,205.4,18.3,205.4,22.3"/>
</g>
</svg>
