<svg width="2400" height="240" viewBox="0 0 2400 240" fill="none" xmlns="http://www.w3.org/2000/svg">
<path fill-rule="evenodd" clip-rule="evenodd" d="M274.25 230C288.472 236.666 304.25 240 321.583 240C338.25 240 353.694 236.777 367.916 230.333C382.139 223.666 394.361 214.889 404.583 204C414.805 192.889 422.805 180.222 428.583 166C434.361 151.555 437.25 136.444 437.25 120.666C437.25 105.778 434.472 91.111 428.916 76.6665C423.361 62.2221 415.583 49.3333 405.583 37.9999C395.583 26.6666 383.472 17.5555 369.25 10.6667C355.25 3.55555 339.694 0 322.583 0C305.917 0 290.472 3.33332 276.25 9.99997C262.028 16.4444 249.694 25.2222 239.25 36.3333C229.028 47.4444 220.917 60.2221 214.917 74.6665C209.139 89.111 206.25 104.222 206.25 120C206.25 135.111 209.028 149.889 214.583 164.333C220.139 178.777 227.917 191.666 237.917 203C248.139 214.111 260.25 223.111 274.25 230ZM257.583 149.666C254.472 140.111 252.917 130.222 252.917 120C252.917 110.222 254.361 100.666 257.25 91.3332C260.361 81.7776 264.805 73.3332 270.583 65.9999C276.361 58.4443 283.583 52.4444 292.25 47.9999C300.917 43.3333 310.805 40.9999 321.916 40.9999C332.583 40.9999 342.139 43.2222 350.583 47.6666C359.25 51.8888 366.472 57.6666 372.25 64.9999C378.25 72.3332 382.805 80.7776 385.916 90.3332C389.25 99.8887 390.916 109.778 390.916 120C390.916 129.778 389.361 139.444 386.25 149C383.361 158.333 378.916 166.778 372.916 174.333C367.139 181.889 359.916 188 351.25 192.666C342.805 197.111 333.028 199.333 321.916 199.333C311.028 199.333 301.25 197.111 292.583 192.666C284.139 188.222 276.917 182.333 270.917 175C265.139 167.666 260.694 159.222 257.583 149.666ZM197 41.9998H121.333V238.333H75.6665V41.9998H0V1.66649H197V41.9998ZM769.186 1.66649H809.898L900 238.333H852.613L830.588 179.333H747.828L726.137 238.333H678.75L769.186 1.66649ZM822.246 147L789.542 53.9997L755.503 147H822.246ZM476.25 238.333V1.66649H522.25V198H642.916V238.333H476.25ZM944.833 75.6667C939.944 89.6667 937.5 103.778 937.5 118C937.5 133.111 940.167 148 945.5 162.667C951.056 177.111 958.722 190.111 968.5 201.667C978.278 213 989.944 222.222 1003.5 229.333C1017.06 236.444 1031.94 240 1048.17 240C1057.28 240 1066.5 238.778 1075.83 236.333C1085.39 233.889 1094.39 230.333 1102.83 225.667C1111.28 221 1118.94 215.333 1125.83 208.667C1132.72 201.778 1138.06 193.889 1141.83 185L1122.5 175C1118.72 182.778 1114.06 189.444 1108.5 195C1102.94 200.333 1096.83 204.889 1090.17 208.667C1083.72 212.222 1076.94 214.889 1069.83 216.667C1062.94 218.222 1056.17 219 1049.5 219C1036.83 219 1025.06 216.333 1014.17 211C1003.5 205.444 994.167 198.111 986.167 189C978.389 179.667 972.167 169 967.5 157C963.056 145 960.833 132.444 960.833 119.333C960.833 107.333 962.722 95.5556 966.5 84C970.278 72.2222 975.833 61.6667 983.167 52.3333C990.722 43 999.944 35.4445 1010.83 29.6667C1021.72 23.8889 1034.28 21 1048.5 21C1054.94 21 1061.5 21.7778 1068.17 23.3333C1074.83 24.6667 1081.28 27 1087.5 30.3333C1093.72 33.6667 1099.5 38 1104.83 43.3333C1110.39 48.6667 1115.06 55.2222 1118.83 63L1137.17 51.6667C1130.06 36.3333 1118.94 23.8889 1103.83 14.3333C1088.94 4.77778 1070.94 0 1049.83 0C1032.06 0 1016.17 3.55556 1002.17 10.6667C988.167 17.5556 976.389 26.5556 966.833 37.6667C957.278 48.7778 949.944 61.4445 944.833 75.6667ZM2087.42 1.33301H2067.75L1968.75 238H1993.75L2024.08 164H2130.42L2161.08 238H2185.75L2087.42 1.33301ZM2077.42 28.6663L2125.08 145.666H2029.08L2077.42 28.6663ZM2241.5 238V1.33301H2264.83V217.333H2400V238H2241.5ZM1873.92 21.9997H1958.25V1.33301H1766.25V21.9997H1850.58V238H1873.92V21.9997ZM1455 238V1.33301H1553C1563.22 1.33301 1572.56 3.55523 1581 7.99967C1589.67 12.2219 1597.11 17.8886 1603.33 24.9997C1609.56 31.8886 1614.44 39.7775 1618 48.6664C1621.56 57.5552 1623.33 66.5552 1623.33 75.6663C1623.33 85.4441 1621.67 94.8886 1618.33 104C1615 112.889 1610.33 120.777 1604.33 127.666C1598.33 134.555 1591.11 140.111 1582.67 144.333C1574.44 148.555 1565.22 150.666 1555 150.666H1478.33V238H1455ZM1478.33 130H1554C1560.89 130 1567.11 128.555 1572.67 125.666C1578.44 122.555 1583.33 118.555 1587.33 113.666C1591.33 108.555 1594.44 102.777 1596.67 96.333C1598.89 89.6663 1600 82.7775 1600 75.6663C1600 68.333 1598.67 61.4441 1596 54.9997C1593.56 48.333 1590.11 42.5552 1585.67 37.6663C1581.44 32.7775 1576.33 28.9997 1570.33 26.333C1564.56 23.4441 1558.44 21.9997 1552 21.9997H1478.33V130ZM1683.75 1.33301V238H1707.08V1.33301H1683.75ZM1276.5 1.33301H1296.17L1394.5 238H1369.83L1339.17 164H1232.83L1202.5 238H1177.5L1276.5 1.33301ZM1333.83 145.666L1286.17 28.6663L1237.83 145.666H1333.83Z" fill="#891C28"/>
</svg>
